<svg width="50" height="50" viewBox="0 0 50 50" fill="none" xmlns="http://www.w3.org/2000/svg">
<path fill-rule="evenodd" clip-rule="evenodd" d="M23.4885 2.63163C20.7182 2.96233 18.1554 3.90363 15.9396 5.40433C14.636 6.28724 12.7082 8.24573 11.8051 9.60473C10.606 11.409 9.80894 13.2668 9.38204 15.2524C9.05464 16.775 9.00414 19.462 9.27324 21.0373C9.53964 22.5962 10.0477 24.1608 10.7153 25.4782C11.0063 26.0524 14.0556 31.0838 17.4915 36.659C21.9419 43.8804 23.8369 46.8714 24.0807 47.059C24.5695 47.4351 25.408 47.4349 25.8963 47.0586C26.1398 46.8709 28.0409 43.8702 32.4855 36.6586C35.9213 31.0836 38.9706 26.0524 39.2616 25.4782C39.8543 24.3089 40.3826 22.7707 40.6547 21.4223C40.9112 20.1515 40.9127 16.7998 40.6574 15.5377C40.0107 12.341 38.5347 9.60443 36.1955 7.26533C33.857 4.92673 31.2185 3.50903 28.0036 2.86373C27.0694 2.67623 24.3054 2.53413 23.4885 2.63163ZM26.8005 14.0966C28.2959 14.6419 29.3353 15.561 29.9929 16.9195C32.3148 21.7167 27.2799 26.7211 22.5093 24.3578C21.1143 23.6668 20.1577 22.5431 19.6272 20.9723C19.4929 20.5747 19.4414 20.1314 19.4414 19.3723C19.4414 17.7922 19.938 16.5473 20.9974 15.4713C21.7953 14.6609 22.7993 14.1134 23.9385 13.8673C24.6406 13.7156 26.0697 13.8301 26.8005 14.0966Z" fill="#10C44C"/>
</svg>
