<svg width="32" height="46" viewBox="0 0 32 46" fill="none" xmlns="http://www.w3.org/2000/svg">
<path fill-rule="evenodd" clip-rule="evenodd" d="M14.4885 0.631642C11.7182 0.962342 9.15544 1.90364 6.93964 3.40434C5.63604 4.28724 3.70824 6.24574 2.80514 7.60474C1.60604 9.40904 0.808939 11.2668 0.382039 13.2524C0.0546387 14.775 0.00413891 17.462 0.273239 19.0373C0.539639 20.5962 1.04774 22.1608 1.71534 23.4782C2.00634 24.0524 5.05564 29.0838 8.49154 34.659C12.9419 41.8804 14.8369 44.8714 15.0807 45.059C15.5695 45.4351 16.408 45.4349 16.8963 45.0586C17.1398 44.8709 19.0409 41.8702 23.4855 34.6586C26.9213 29.0836 29.9706 24.0524 30.2616 23.4782C30.8543 22.3089 31.3826 20.7707 31.6547 19.4223C31.9112 18.1515 31.9127 14.7998 31.6574 13.5377C31.0107 10.341 29.5347 7.60444 27.1955 5.26534C24.857 2.92674 22.2185 1.50904 19.0036 0.863743C18.0694 0.676243 15.3054 0.534142 14.4885 0.631642ZM17.8005 12.0966C19.2959 12.6419 20.3353 13.561 20.9929 14.9195C23.3148 19.7167 18.2799 24.7211 13.5093 22.3578C12.1143 21.6668 11.1577 20.5431 10.6272 18.9723C10.4929 18.5747 10.4414 18.1314 10.4414 17.3723C10.4414 15.7922 10.938 14.5473 11.9974 13.4713C12.7953 12.6609 13.7993 12.1134 14.9385 11.8673C15.6406 11.7156 17.0697 11.8301 17.8005 12.0966Z" fill="#005BFF"/>
</svg>
